<svg width="20" height="20" viewBox="0 0 20 20" fill="none" xmlns="http://www.w3.org/2000/svg">
<path fill-rule="evenodd" clip-rule="evenodd" d="M10.0001 3.33366C6.31818 3.33366 3.33341 6.31843 3.33341 10.0003C3.33341 13.6822 6.31818 16.667 10.0001 16.667C13.682 16.667 16.6667 13.6822 16.6667 10.0003C16.6667 6.31843 13.682 3.33366 10.0001 3.33366ZM1.66675 10.0003C1.66675 5.39795 5.39771 1.66699 10.0001 1.66699C14.6025 1.66699 18.3334 5.39795 18.3334 10.0003C18.3334 14.6027 14.6025 18.3337 10.0001 18.3337C5.39771 18.3337 1.66675 14.6027 1.66675 10.0003ZM10.0001 5.83366C10.4603 5.83366 10.8334 6.20675 10.8334 6.66699V10.0003C10.8334 10.4606 10.4603 10.8337 10.0001 10.8337C9.53984 10.8337 9.16675 10.4606 9.16675 10.0003V6.66699C9.16675 6.20675 9.53984 5.83366 10.0001 5.83366ZM9.16675 13.3337C9.16675 12.8734 9.53984 12.5003 10.0001 12.5003H10.0084C10.4687 12.5003 10.8417 12.8734 10.8417 13.3337C10.8417 13.7939 10.4687 14.167 10.0084 14.167H10.0001C9.53984 14.167 9.16675 13.7939 9.16675 13.3337Z" fill="currentColor"/>
</svg>
