<svg width="16" height="16" viewBox="0 0 16 16" fill="none" xmlns="http://www.w3.org/2000/svg">
<path fill-rule="evenodd" clip-rule="evenodd" d="M5.72386 1.72402C5.97391 1.47397 6.31304 1.3335 6.66667 1.3335H9.33333C9.68696 1.3335 10.0261 1.47397 10.2761 1.72402C10.5262 1.97407 10.6667 2.31321 10.6667 2.66683V4.00016H12.6589C12.6636 4.00011 12.6683 4.00011 12.673 4.00016H13.3333C13.7015 4.00016 14 4.29864 14 4.66683C14 5.03502 13.7015 5.3335 13.3333 5.3335H13.2801L12.6664 12.6974C12.6585 13.2167 12.4488 13.7132 12.0809 14.081C11.7058 14.4561 11.1971 14.6668 10.6667 14.6668H5.33333C4.8029 14.6668 4.29419 14.4561 3.91912 14.081C3.55125 13.7132 3.34148 13.2167 3.33357 12.6974L2.71991 5.3335H2.66667C2.29848 5.3335 2 5.03502 2 4.66683C2 4.29864 2.29848 4.00016 2.66667 4.00016H3.32702C3.33174 4.00011 3.33644 4.00011 3.34113 4.00016H5.33333V2.66683C5.33333 2.31321 5.47381 1.97407 5.72386 1.72402ZM4.05787 5.3335L4.66436 12.6115C4.6659 12.6299 4.66667 12.6484 4.66667 12.6668C4.66667 12.8436 4.7369 13.0132 4.86193 13.1382C4.98695 13.2633 5.15652 13.3335 5.33333 13.3335H10.6667C10.8435 13.3335 11.013 13.2633 11.1381 13.1382C11.2631 13.0132 11.3333 12.8436 11.3333 12.6668C11.3333 12.6484 11.3341 12.6299 11.3356 12.6115L11.9421 5.3335H4.05787ZM9.33333 4.00016H6.66667V2.66683H9.33333V4.00016ZM6.66667 6.66683C7.03486 6.66683 7.33333 6.96531 7.33333 7.3335V11.3335C7.33333 11.7017 7.03486 12.0002 6.66667 12.0002C6.29848 12.0002 6 11.7017 6 11.3335V7.3335C6 6.96531 6.29848 6.66683 6.66667 6.66683ZM9.33333 6.66683C9.70152 6.66683 10 6.96531 10 7.3335V11.3335C10 11.7017 9.70152 12.0002 9.33333 12.0002C8.96514 12.0002 8.66667 11.7017 8.66667 11.3335V7.3335C8.66667 6.96531 8.96514 6.66683 9.33333 6.66683Z" fill="currentColor"/>
</svg>
