<svg width="20" height="20" viewBox="0 0 20 20" fill="none" xmlns="http://www.w3.org/2000/svg">
<path fill-rule="evenodd" clip-rule="evenodd" d="M10.0001 3.33317C6.31818 3.33317 3.33341 6.31794 3.33341 9.99984C3.33341 13.6817 6.31818 16.6665 10.0001 16.6665C13.682 16.6665 16.6667 13.6817 16.6667 9.99984C16.6667 6.31794 13.682 3.33317 10.0001 3.33317ZM1.66675 9.99984C1.66675 5.39746 5.39771 1.6665 10.0001 1.6665C14.6025 1.6665 18.3334 5.39746 18.3334 9.99984C18.3334 14.6022 14.6025 18.3332 10.0001 18.3332C5.39771 18.3332 1.66675 14.6022 1.66675 9.99984ZM9.16675 6.6665C9.16675 6.20627 9.53984 5.83317 10.0001 5.83317H10.0084C10.4687 5.83317 10.8417 6.20627 10.8417 6.6665C10.8417 7.12674 10.4687 7.49984 10.0084 7.49984H10.0001C9.53984 7.49984 9.16675 7.12674 9.16675 6.6665ZM8.33341 9.99984C8.33341 9.5396 8.70651 9.1665 9.16675 9.1665H10.0001C10.4603 9.1665 10.8334 9.5396 10.8334 9.99984V12.4998C11.2937 12.4998 11.6667 12.8729 11.6667 13.3332C11.6667 13.7934 11.2937 14.1665 10.8334 14.1665H10.0001C9.53984 14.1665 9.16675 13.7934 9.16675 13.3332V10.8332C8.70651 10.8332 8.33341 10.4601 8.33341 9.99984Z" fill="currentColor"/>
</svg>
