<svg width="20" height="20" viewBox="0 0 20 20" fill="none" xmlns="http://www.w3.org/2000/svg">
<path fill-rule="evenodd" clip-rule="evenodd" d="M8.72193 1.98656C9.10662 1.75976 9.54505 1.64014 9.99162 1.64014C10.4382 1.64014 10.8766 1.75976 11.2613 1.98656C11.6434 2.21182 11.9586 2.53463 12.1747 2.92183L18.0876 13.1237C18.1072 13.1576 18.1245 13.1928 18.1391 13.2291C18.2921 13.6072 18.3502 14.017 18.3084 14.4228C18.2667 14.8285 18.1262 15.2179 17.8994 15.5569C17.6726 15.8959 17.3662 16.1742 17.0071 16.3677C16.648 16.5611 16.247 16.6637 15.8391 16.6666L15.8333 16.6666H4.16662C4.15139 16.6666 4.13625 16.6662 4.12122 16.6654C4.09184 16.667 4.06209 16.667 4.03205 16.6655C3.6338 16.645 3.24623 16.5295 2.90171 16.3286C2.55719 16.1278 2.26571 15.8474 2.05161 15.511C1.83752 15.1746 1.70701 14.7918 1.67099 14.3946C1.63497 13.9975 1.69448 13.5975 1.84455 13.228C1.85913 13.1921 1.8762 13.1572 1.89563 13.1237L7.80856 2.92185C8.02464 2.53464 8.33986 2.21182 8.72193 1.98656ZM4.12058 15.0012C4.13582 15.0004 4.15117 14.9999 4.16662 14.9999H15.8299C15.965 14.9986 16.0978 14.9644 16.2168 14.9003C16.3365 14.8358 16.4386 14.7431 16.5142 14.6301C16.5898 14.517 16.6366 14.3873 16.6505 14.252C16.6628 14.133 16.6493 14.0129 16.6111 13.8998L10.729 3.75114L10.7208 3.7367C10.6487 3.60645 10.5431 3.49788 10.4149 3.42228C10.2866 3.34668 10.1405 3.3068 9.99162 3.3068C9.84276 3.3068 9.69662 3.34668 9.56839 3.42228C9.44016 3.49788 9.33452 3.60645 9.26245 3.7367L9.25427 3.75114L3.37183 13.9004C3.33433 14.0107 3.32029 14.1277 3.33084 14.2441C3.34285 14.3765 3.38635 14.5041 3.45772 14.6162C3.52908 14.7284 3.62624 14.8218 3.74108 14.8887C3.85592 14.9557 3.98511 14.9942 4.11786 15.001C4.11877 15.0011 4.11968 15.0011 4.12058 15.0012ZM10 6.66658C10.4602 6.66658 10.8333 7.03968 10.8333 7.49992V9.16658C10.8333 9.62682 10.4602 9.99992 10 9.99992C9.53976 9.99992 9.16667 9.62682 9.16667 9.16658V7.49992C9.16667 7.03968 9.53976 6.66658 10 6.66658ZM10 11.6666C10.4602 11.6666 10.8333 12.0397 10.8333 12.4999V12.5083C10.8333 12.9685 10.4602 13.3416 10 13.3416C9.53976 13.3416 9.16667 12.9685 9.16667 12.5083V12.4999C9.16667 12.0397 9.53976 11.6666 10 11.6666Z" fill="currentColor"/>
</svg>
